<svg width="380" height="279" viewBox="0 0 380 279" fill="none" xmlns="http://www.w3.org/2000/svg">
<rect width="53.002" height="53.002" transform="matrix(0.866025 0.5 -0.866025 0.5 137.329 0)" fill="white"/>
<rect width="53.002" height="53.002" transform="matrix(0.866025 0.5 0 1 91.4282 26.501)" fill="#93AAFC"/>
<rect width="53.002" height="53.002" transform="matrix(0.866025 -0.5 0 1 137.329 53.002)" fill="#9CD89F"/>
<rect width="53.002" height="53.002" transform="matrix(0.866025 0.5 -0.866025 0.5 91.6152 26.501)" fill="white"/>
<rect width="53.002" height="53.002" transform="matrix(0.866025 0.5 0 1 45.7144 53.0019)" fill="#93AAFC"/>
<rect width="53.002" height="53.002" transform="matrix(0.866025 -0.5 0 1 91.6152 79.5029)" fill="#9CD89F"/>
<rect width="53.002" height="53.002" transform="matrix(0.866025 0.5 -0.866025 0.5 45.9009 53.002)" fill="white"/>
<rect width="53.002" height="53.002" transform="matrix(0.866025 0.5 0 1 0 79.503)" fill="#1A2E84"/>
<rect width="53.002" height="53.002" transform="matrix(0.866025 -0.5 0 1 45.9009 106.004)" fill="#6580E1"/>
<rect width="53.002" height="53.002" transform="matrix(0.866025 0.5 -0.866025 0.5 91.6152 79.503)" fill="white"/>
<rect width="53.002" height="53.002" transform="matrix(0.866025 0.5 0 1 45.7144 106.004)" fill="#1A2E84"/>
<rect width="53.002" height="53.002" transform="matrix(0.866025 -0.5 0 1 91.6152 132.505)" fill="#6580E1"/>
<rect width="53.002" height="53.002" transform="matrix(0.866025 0.5 -0.866025 0.5 137.329 106.004)" fill="white"/>
<rect width="53.002" height="53.002" transform="matrix(0.866025 0.5 0 1 91.4282 132.505)" fill="#1A2E84"/>
<rect width="53.002" height="53.002" transform="matrix(0.866025 -0.5 0 1 137.329 159.006)" fill="#9CD89F"/>
<rect width="53.002" height="53.002" transform="matrix(0.866025 0.5 -0.866025 0.5 242.67 66.2525)" fill="white"/>
<rect width="53.002" height="53.002" transform="matrix(0.866025 0.5 0 1 196.77 92.7534)" fill="#9CD89F"/>
<rect width="53.002" height="53.002" transform="matrix(0.866025 -0.5 0 1 242.67 119.254)" fill="#6580E1"/>
<rect width="53.002" height="53.002" transform="matrix(0.866025 0.5 -0.866025 0.5 288.385 92.7535)" fill="white"/>
<rect width="53.002" height="53.002" transform="matrix(0.866025 0.5 0 1 242.484 119.254)" fill="#9CD89F"/>
<rect width="53.002" height="53.002" transform="matrix(0.866025 -0.5 0 1 288.385 145.755)" fill="#6580E1"/>
<rect width="53.002" height="53.002" transform="matrix(0.866025 0.5 -0.866025 0.5 334.099 119.254)" fill="white"/>
<rect width="53.002" height="53.002" transform="matrix(0.866025 0.5 0 1 288.198 145.755)" fill="#93AAFC"/>
<rect width="53.002" height="53.002" transform="matrix(0.866025 -0.5 0 1 334.099 172.256)" fill="#1A2E84"/>
<rect width="53.002" height="53.002" transform="matrix(0.866025 0.5 -0.866025 0.5 288.385 145.755)" fill="white"/>
<rect width="53.002" height="53.002" transform="matrix(0.866025 0.5 0 1 242.484 172.256)" fill="#93AAFC"/>
<rect width="53.002" height="53.002" transform="matrix(0.866025 -0.5 0 1 288.385 198.757)" fill="#1A2E84"/>
<rect width="53.002" height="53.002" transform="matrix(0.866025 0.5 -0.866025 0.5 242.67 172.256)" fill="white"/>
<rect width="53.002" height="53.002" transform="matrix(0.866025 0.5 0 1 196.77 198.757)" fill="#9CD89F"/>
<rect width="53.002" height="53.002" transform="matrix(0.866025 -0.5 0 1 242.67 225.258)" fill="#1A2E84"/>
</svg>
